<?xml version="1.0" encoding="UTF-8" standalone="no"?>
<!-- Created with Inkscape (http://www.inkscape.org/) -->

<svg
   xmlns:dc="http://purl.org/dc/elements/1.1/"
   xmlns:cc="http://creativecommons.org/ns#"
   xmlns:rdf="http://www.w3.org/1999/02/22-rdf-syntax-ns#"
   xmlns:svg="http://www.w3.org/2000/svg"
   xmlns="http://www.w3.org/2000/svg"
   xmlns:sodipodi="http://sodipodi.sourceforge.net/DTD/sodipodi-0.dtd"
   xmlns:inkscape="http://www.inkscape.org/namespaces/inkscape"
   width="139.20901mm"
   height="139.209mm"
   viewBox="0 0 493.26029 493.26023"
   id="svg2"
   version="1.1"
   inkscape:version="0.91 r13725"
   sodipodi:docname="settings.svg">
  <defs
     id="defs4" />
  <sodipodi:namedview
     id="base"
     pagecolor="#ffffff"
     bordercolor="#666666"
     borderopacity="1.0"
     inkscape:pageopacity="0.0"
     inkscape:pageshadow="2"
     inkscape:zoom="1.4142136"
     inkscape:cx="175.55245"
     inkscape:cy="316.81324"
     inkscape:document-units="px"
     inkscape:current-layer="layer2"
     showgrid="false"
     inkscape:window-width="1301"
     inkscape:window-height="744"
     inkscape:window-x="65"
     inkscape:window-y="24"
     inkscape:window-maximized="1"
     showguides="false"
     inkscape:guide-bbox="true"
     fit-margin-top="0"
     fit-margin-left="0"
     fit-margin-right="0"
     fit-margin-bottom="0">
    <sodipodi:guide
       position="401.10632,457.40968"
       orientation="1,0"
       id="guide4339" />
    <sodipodi:guide
       position="389.43906,457.49807"
       orientation="0,1"
       id="guide4341" />
  </sodipodi:namedview>
  <metadata
     id="metadata7">
    <rdf:RDF>
      <cc:Work
         rdf:about="">
        <dc:format>image/svg+xml</dc:format>
        <dc:type
           rdf:resource="http://purl.org/dc/dcmitype/StillImage" />
        <dc:title></dc:title>
      </cc:Work>
    </rdf:RDF>
  </metadata>
  <g
     inkscape:groupmode="layer"
     id="layer2"
     inkscape:label="data"
     transform="translate(-1.5242545e-8,-559.10194)">
    <path
       style="fill:none;fill-rule:evenodd;stroke:#000000;stroke-width:5;stroke-linecap:butt;stroke-linejoin:miter;stroke-miterlimit:4;stroke-dasharray:none;stroke-opacity:1"
       d="m 227.20115,884.89158 0,18.15429 5.80469,10.05469 -17.4375,16.46094 -24.49609,4.29492 -7.57618,18.93945 18.43555,17.42579 42.6885,7.14843 c 42.29007,-7.14843 42.29007,-7.14843 42.29007,-7.14843 l 18.43554,-17.42579 -7.57617,-18.93945 -24.49609,-4.29492 -17.4375,-16.46094 5.80469,-10.05469 0,-18.15429 -17.2168,-9.25586 -17.22266,9.25586 z"
       id="path4295"
       inkscape:connector-curvature="0"
       sodipodi:nodetypes="cccccccccccccccccc" />
    <path
       style="fill:none;fill-rule:evenodd;stroke:#000000;stroke-width:5;stroke-linecap:butt;stroke-linejoin:miter;stroke-miterlimit:4;stroke-dasharray:none;stroke-opacity:1"
       d="m 266.05914,726.57258 0,-18.15429 -5.80469,-10.05469 17.4375,-16.46094 24.49609,-4.29492 7.57618,-18.93945 -18.43555,-17.42579 -42.6885,-7.14843 c -42.29007,7.14843 -42.29007,7.14843 -42.29007,7.14843 l -18.43554,17.42579 7.57617,18.93945 24.49609,4.29492 17.4375,16.46094 -5.80469,10.05469 0,18.15429 17.2168,9.25586 17.22266,-9.25586 z"
       id="path4295-6"
       inkscape:connector-curvature="0"
       sodipodi:nodetypes="cccccccccccccccccc" />
    <path
       style="fill:none;fill-rule:evenodd;stroke:#000000;stroke-width:5;stroke-linecap:butt;stroke-linejoin:miter;stroke-miterlimit:4;stroke-dasharray:none;stroke-opacity:1"
       d="m 325.78964,825.16108 18.15429,0 10.05469,-5.80469 16.46094,17.4375 4.29492,24.49609 18.93945,7.57618 17.42579,-18.43555 7.14843,-42.6885 c -7.14843,-42.29007 -7.14843,-42.29007 -7.14843,-42.29007 l -17.42579,-18.43554 -18.93945,7.57617 -4.29492,24.49609 -16.46094,17.4375 -10.05469,-5.80469 -18.15429,0 -9.25586,17.2168 9.25586,17.22266 z"
       id="path4295-0"
       inkscape:connector-curvature="0"
       sodipodi:nodetypes="cccccccccccccccccc" />
    <path
       style="fill:none;fill-rule:evenodd;stroke:#000000;stroke-width:5;stroke-linecap:butt;stroke-linejoin:miter;stroke-miterlimit:4;stroke-dasharray:none;stroke-opacity:1"
       d="m 167.47064,786.30309 -18.15429,0 -10.05469,5.80469 -16.46094,-17.4375 -4.29492,-24.49609 -18.939453,-7.57618 -17.42579,18.43555 -7.14843,42.6885 c 7.14843,42.29007 7.14843,42.29007 7.14843,42.29007 l 17.42579,18.43554 18.939453,-7.57617 4.29492,-24.49609 16.46094,-17.4375 10.05469,5.80469 18.15429,0 9.25586,-17.2168 -9.25586,-17.22266 z"
       id="path4295-6-6"
       inkscape:connector-curvature="0"
       sodipodi:nodetypes="cccccccccccccccccc" />
    <path
       style="fill:none;fill-rule:evenodd;stroke:#000000;stroke-width:5;stroke-linecap:butt;stroke-linejoin:miter;stroke-miterlimit:4;stroke-dasharray:none;stroke-opacity:1"
       d="m 288.86599,875.44467 12.83702,12.83703 11.21428,3.0052 -0.69054,23.96982 -14.28438,20.35832 8.03504,18.74938 25.3578,-0.71401 35.24003,-25.13063 c 24.84889,-34.95829 24.84889,-34.95829 24.84889,-34.95829 l 0.71401,-25.35779 -18.74938,-8.03506 -20.35832,14.28439 -23.96981,0.69053 -3.00521,-11.21427 -12.83702,-12.83703 -18.719,5.62924 -5.63338,18.72314 z"
       id="path4295-2"
       inkscape:connector-curvature="0"
       sodipodi:nodetypes="cccccccccccccccccc" />
    <path
       style="fill:none;fill-rule:evenodd;stroke:#000000;stroke-width:5;stroke-linecap:butt;stroke-linejoin:miter;stroke-miterlimit:4;stroke-dasharray:none;stroke-opacity:1"
       d="m 204.3943,736.01949 -12.83702,-12.83702 -11.21428,-3.00521 0.69053,-23.96981 14.28439,-20.35832 -8.03505,-18.74938 -25.35779,0.714 -35.24003,25.13063 c -24.8489,34.9583 -24.8489,34.9583 -24.8489,34.9583 l -0.714,25.35779 18.74938,8.03505 20.35832,-14.28439 23.96981,-0.69053 3.00521,11.21428 12.83702,12.83702 18.719,-5.62924 5.63337,-18.72314 z"
       id="path4295-6-61"
       inkscape:connector-curvature="0"
       sodipodi:nodetypes="cccccccccccccccccc" />
    <path
       style="fill:none;fill-rule:evenodd;stroke:#000000;stroke-width:5;stroke-linecap:butt;stroke-linejoin:miter;stroke-miterlimit:4;stroke-dasharray:none;stroke-opacity:1"
       d="m 316.34274,763.49624 12.83702,-12.83702 3.0052,-11.21427 23.96982,0.69053 20.35832,14.28438 18.74938,-8.03504 -0.71401,-25.3578 -25.13062,-35.24003 c -34.9583,-24.84889 -34.9583,-24.84889 -34.9583,-24.84889 l -25.35779,-0.714 -8.03505,18.74937 14.28438,20.35832 0.69053,23.96982 -11.21427,3.0052 -12.83702,12.83702 5.62923,18.719 18.72314,5.63338 z"
       id="path4295-0-8"
       inkscape:connector-curvature="0"
       sodipodi:nodetypes="cccccccccccccccccc" />
    <path
       style="fill:none;fill-rule:evenodd;stroke:#000000;stroke-width:5;stroke-linecap:butt;stroke-linejoin:miter;stroke-miterlimit:4;stroke-dasharray:none;stroke-opacity:1"
       d="m 176.91754,847.96794 -12.83702,12.83702 -3.0052,11.21428 -23.96982,-0.69053 -20.35832,-14.28439 -18.749383,8.03505 0.71402,25.35779 25.130623,35.24003 c 34.9583,24.84889 34.9583,24.84889 34.9583,24.84889 l 25.35778,0.71401 8.03505,-18.74938 -14.28438,-20.35832 -0.69053,-23.96981 11.21427,-3.00521 12.83702,-12.83702 -5.62922,-18.719 -18.72315,-5.63337 z"
       id="path4295-6-6-7"
       inkscape:connector-curvature="0"
       sodipodi:nodetypes="cccccccccccccccccc" />
    <path
       id="path4162-7-3-1"
       style="fill:none;fill-rule:evenodd;stroke:#000000;stroke-width:5;stroke-linecap:butt;stroke-linejoin:miter;stroke-miterlimit:4;stroke-dasharray:none;stroke-opacity:1"
       d="m 219.67168,607.74218 -6.18718,-40.59551 34.17559,-5.51065 31.45981,5.35527 -5.56635,40.90184 49.87055,13.87681 44.14352,24.89963 24.33036,-33.08036 28.06241,20.26917 18.4587,26.0322 -32.85797,24.98596 25.45142,45.07619 13.60749,48.82088 40.59551,-6.18718 5.51065,34.17559 -5.35527,31.45981 -40.90184,-5.56635 -13.8768,49.87056 -24.89963,44.14352 33.08035,24.33036 -20.26917,28.06241 -26.03219,18.4587 -24.98597,-32.85797 -45.07619,25.45142 -48.82088,13.60752 6.18718,40.5955 -34.17559,5.5106 -31.45981,-5.3552 5.56635,-40.9019 -49.87055,-13.87679 -44.14353,-24.89963 -24.33037,33.08036 -28.062413,-20.26918 -18.45869,-26.03219 32.85797,-24.98596 -25.45142,-45.07619 -13.60749,-48.82089 -40.5955098,6.18718 -5.51065,-34.17559 5.35527,-31.45981 40.9018398,5.56635 13.87681,-49.87055 24.89963,-44.14352 -33.08035,-24.33037 20.26917,-28.06241 26.032193,-18.45869 24.98597,32.85797 45.07619,-25.45142 z"
       inkscape:connector-curvature="0"
       sodipodi:nodetypes="ccccccccccccccccccccccccccccccccccccccccccccccccc" />
    <path
       id="path4262-2-7-9-6"
       style="fill:none;fill-rule:evenodd;stroke:#000000;stroke-width:5;stroke-linecap:butt;stroke-linejoin:miter;stroke-miterlimit:4;stroke-dasharray:none;stroke-opacity:1"
       d="m 87.925957,710.86224 14.647213,-23.35978 1.76777,-12.6269 -6.124053,-6.12405 -16.09931,-0.82075 -5.74524,-14.07901 7.63882,-12.1845 12.18449,-7.63881 14.079013,5.74524 0.82075,16.09931 6.12405,6.12404 12.6269,-1.76776 23.35979,-14.64721 23.37851,-11.42295 24.90779,-7.73094 26.875,-6.16072 10.17857,-7.67857 0,-8.66071 -10.80357,-11.96429 5.89286,-14.01786 14.0172,-3.21428 14.0172,3.21428 5.89286,14.01786 -10.80357,11.96429 0,8.66071 10.17857,7.67857 26.875,6.16072 24.60835,8.45387 23.07906,12.14587 23.35979,14.64721 12.6269,1.76776 6.12405,-6.12404 0.82075,-16.09931 14.07901,-5.74524 12.18449,7.63881 7.63882,12.1845 -5.74524,14.07901 -16.09931,0.82075 -6.12405,6.12405 1.76777,12.6269 14.64721,23.35978 11.42294,23.37851 7.73094,24.90779 6.16072,26.875 7.67857,10.17857 8.66071,0 11.96429,-10.80357 14.01786,5.89286 3.21428,14.0172 -3.21428,14.0172 -14.01786,5.89286 -11.96429,-10.80357 -8.66071,0 -7.67857,10.17857 -6.16072,26.875 -8.45386,24.60834 -12.14587,23.07907 -14.6472,23.35978 -1.76777,12.62691 6.12405,6.12405 16.0993,0.82075 5.74525,14.079 -7.63882,12.1845 -12.1845,7.63882 -14.079,-5.74524 -0.82076,-16.09931 -6.12404,-6.12405 -12.62691,1.76777 -23.35978,14.64721 -23.37851,11.42293 -24.90779,7.73095 -26.875,6.16072 -10.17857,7.67857 0,8.66072 10.80357,11.9643 -5.89286,14.0178 -14.0172,3.2143 -14.0172,-3.2143 -5.89286,-14.0178 10.80357,-11.9643 0,-8.66072 -10.17857,-7.67857 -26.875,-6.16072 -24.60834,-8.45387 -23.07908,-12.14585 -23.35978,-14.64721 -12.6269,-1.76776 -6.12405,6.12404 -0.82075,16.09931 -14.079013,5.74524 -12.18449,-7.63881 -7.63882,-12.1845 5.74524,-14.07901 16.09931,-0.82075 6.124043,-6.12405 -1.76776,-12.6269 -14.647213,-23.35978 -11.42294,-23.37852 -7.73095,-24.90779 -6.16072,-26.875 -7.67857,-10.17857 -8.66071,0 -11.96429,10.80357 -14.01786,-5.89286 -3.21428,-14.0172 3.21428,-14.0172 14.01786,-5.89286 11.96429,10.80357 8.66071,0 7.67857,-10.17857 6.16072,-26.875 8.45387,-24.60835 z"
       inkscape:connector-curvature="0"
       sodipodi:nodetypes="ccccccccccccccccccccccccccccccccccccccccccccccccccccccccccccccccccccccccccccccccccccccccccccccccccccccccccccccccc" />
    <path
       sodipodi:type="star"
       style="fill:none;fill-opacity:1;stroke:#000000;stroke-width:5;stroke-miterlimit:4;stroke-dasharray:none"
       id="path4343"
       sodipodi:sides="8"
       sodipodi:cx="246.70592"
       sodipodi:cy="804.91132"
       sodipodi:r1="49.289326"
       sodipodi:r2="24.644665"
       sodipodi:arg1="2.3561945"
       sodipodi:arg2="2.7488936"
       inkscape:flatsided="true"
       inkscape:rounded="0"
       inkscape:randomized="0"
       d="m 211.8531,839.76413 -14.43651,-34.85281 14.43651,-34.85282 34.85282,-14.43651 34.85281,14.43651 14.43651,34.85282 -14.43651,34.85281 -34.85281,14.43651 z" />
    <path
       sodipodi:type="star"
       style="fill:none;fill-opacity:1;stroke:#000000;stroke-width:5;stroke-miterlimit:4;stroke-dasharray:none"
       id="path4343-2"
       sodipodi:sides="8"
       sodipodi:cx="246.70592"
       sodipodi:cy="804.91132"
       sodipodi:r1="28.967152"
       sodipodi:r2="14.483576"
       sodipodi:arg1="2.3561945"
       sodipodi:arg2="2.7488936"
       inkscape:flatsided="true"
       inkscape:rounded="0"
       inkscape:randomized="0"
       d="m 226.22305,825.39419 -8.48428,-20.48287 8.48428,-20.48287 20.48287,-8.48429 20.48287,8.48429 8.48428,20.48287 -8.48428,20.48287 -20.48287,8.48428 z" />
    <path
       style="fill:none;fill-rule:evenodd;stroke:#000000;stroke-width:5;stroke-linecap:butt;stroke-linejoin:miter;stroke-miterlimit:4;stroke-dasharray:none;stroke-opacity:1"
       d="m 227.20115,884.89158 0,18.15429 5.80469,10.05469 -17.4375,16.46094 -24.49609,4.29492 -7.57618,18.93945 18.43555,17.42579 42.6885,7.14843 c 42.29007,-7.14843 42.29007,-7.14843 42.29007,-7.14843 l 18.43554,-17.42579 -7.57617,-18.93945 -24.49609,-4.29492 -17.4375,-16.46094 5.80469,-10.05469 0,-18.15429 -17.2168,-9.25586 -17.22266,9.25586 z"
       id="path4295-61"
       inkscape:connector-curvature="0"
       sodipodi:nodetypes="cccccccccccccccccc" />
    <path
       style="fill:none;fill-rule:evenodd;stroke:#000000;stroke-width:5;stroke-linecap:butt;stroke-linejoin:miter;stroke-miterlimit:4;stroke-dasharray:none;stroke-opacity:1"
       d="m 266.05914,726.57258 0,-18.15429 -5.80469,-10.05469 17.4375,-16.46094 24.49609,-4.29492 7.57618,-18.93945 -18.43555,-17.42579 -42.6885,-7.14843 c -42.29007,7.14843 -42.29007,7.14843 -42.29007,7.14843 l -18.43554,17.42579 7.57617,18.93945 24.49609,4.29492 17.4375,16.46094 -5.80469,10.05469 0,18.15429 17.2168,9.25586 17.22266,-9.25586 z"
       id="path4295-6-8"
       inkscape:connector-curvature="0"
       sodipodi:nodetypes="cccccccccccccccccc" />
    <path
       style="fill:none;fill-rule:evenodd;stroke:#000000;stroke-width:5;stroke-linecap:butt;stroke-linejoin:miter;stroke-miterlimit:4;stroke-dasharray:none;stroke-opacity:1"
       d="m 325.78964,825.16108 18.15429,0 10.05469,-5.80469 16.46094,17.4375 4.29492,24.49609 18.93945,7.57618 17.42579,-18.43555 7.14843,-42.6885 c -7.14843,-42.29007 -7.14843,-42.29007 -7.14843,-42.29007 l -17.42579,-18.43554 -18.93945,7.57617 -4.29492,24.49609 -16.46094,17.4375 -10.05469,-5.80469 -18.15429,0 -9.25586,17.2168 9.25586,17.22266 z"
       id="path4295-0-7"
       inkscape:connector-curvature="0"
       sodipodi:nodetypes="cccccccccccccccccc" />
    <path
       style="fill:none;fill-rule:evenodd;stroke:#000000;stroke-width:5;stroke-linecap:butt;stroke-linejoin:miter;stroke-miterlimit:4;stroke-dasharray:none;stroke-opacity:1"
       d="m 167.47064,786.30309 -18.15429,0 -10.05469,5.80469 -16.46094,-17.4375 -4.29492,-24.49609 -18.939453,-7.57618 -17.42579,18.43555 -7.14843,42.6885 c 7.14843,42.29007 7.14843,42.29007 7.14843,42.29007 l 17.42579,18.43554 18.939453,-7.57617 4.29492,-24.49609 16.46094,-17.4375 10.05469,5.80469 18.15429,0 9.25586,-17.2168 -9.25586,-17.22266 z"
       id="path4295-6-6-9"
       inkscape:connector-curvature="0"
       sodipodi:nodetypes="cccccccccccccccccc" />
    <path
       style="fill:none;fill-rule:evenodd;stroke:#000000;stroke-width:5;stroke-linecap:butt;stroke-linejoin:miter;stroke-miterlimit:4;stroke-dasharray:none;stroke-opacity:1"
       d="m 288.86599,875.44467 12.83702,12.83703 11.21428,3.0052 -0.69054,23.96982 -14.28438,20.35832 8.03504,18.74938 25.3578,-0.71401 35.24003,-25.13063 c 24.84889,-34.95829 24.84889,-34.95829 24.84889,-34.95829 l 0.71401,-25.35779 -18.74938,-8.03506 -20.35832,14.28439 -23.96981,0.69053 -3.00521,-11.21427 -12.83702,-12.83703 -18.719,5.62924 -5.63338,18.72314 z"
       id="path4295-2-2"
       inkscape:connector-curvature="0"
       sodipodi:nodetypes="cccccccccccccccccc" />
    <path
       style="fill:none;fill-rule:evenodd;stroke:#000000;stroke-width:5;stroke-linecap:butt;stroke-linejoin:miter;stroke-miterlimit:4;stroke-dasharray:none;stroke-opacity:1"
       d="m 204.3943,736.01949 -12.83702,-12.83702 -11.21428,-3.00521 0.69053,-23.96981 14.28439,-20.35832 -8.03505,-18.74938 -25.35779,0.714 -35.24003,25.13063 c -24.8489,34.9583 -24.8489,34.9583 -24.8489,34.9583 l -0.714,25.35779 18.74938,8.03505 20.35832,-14.28439 23.96981,-0.69053 3.00521,11.21428 12.83702,12.83702 18.719,-5.62924 5.63337,-18.72314 z"
       id="path4295-6-61-0"
       inkscape:connector-curvature="0"
       sodipodi:nodetypes="cccccccccccccccccc" />
    <path
       style="fill:none;fill-rule:evenodd;stroke:#000000;stroke-width:5;stroke-linecap:butt;stroke-linejoin:miter;stroke-miterlimit:4;stroke-dasharray:none;stroke-opacity:1"
       d="m 316.34274,763.49624 12.83702,-12.83702 3.0052,-11.21427 23.96982,0.69053 20.35832,14.28438 18.74938,-8.03504 -0.71401,-25.3578 -25.13062,-35.24003 c -34.9583,-24.84889 -34.9583,-24.84889 -34.9583,-24.84889 l -25.35779,-0.714 -8.03505,18.74937 14.28438,20.35832 0.69053,23.96982 -11.21427,3.0052 -12.83702,12.83702 5.62923,18.719 18.72314,5.63338 z"
       id="path4295-0-8-2"
       inkscape:connector-curvature="0"
       sodipodi:nodetypes="cccccccccccccccccc" />
    <path
       style="fill:none;fill-rule:evenodd;stroke:#000000;stroke-width:5;stroke-linecap:butt;stroke-linejoin:miter;stroke-miterlimit:4;stroke-dasharray:none;stroke-opacity:1"
       d="m 176.91754,847.96794 -12.83702,12.83702 -3.0052,11.21428 -23.96982,-0.69053 -20.35832,-14.28439 -18.749383,8.03505 0.71402,25.35779 25.130623,35.24003 c 34.9583,24.84889 34.9583,24.84889 34.9583,24.84889 l 25.35778,0.71401 8.03505,-18.74938 -14.28438,-20.35832 -0.69053,-23.96981 11.21427,-3.00521 12.83702,-12.83702 -5.62922,-18.719 -18.72315,-5.63337 z"
       id="path4295-6-6-7-3"
       inkscape:connector-curvature="0"
       sodipodi:nodetypes="cccccccccccccccccc" />
    <path
       id="path4162-7-3-1-7"
       style="fill:none;fill-rule:evenodd;stroke:#000000;stroke-width:5;stroke-linecap:butt;stroke-linejoin:miter;stroke-miterlimit:4;stroke-dasharray:none;stroke-opacity:1"
       d="m 219.67168,607.74218 -6.18718,-40.59551 34.17559,-5.51065 31.45981,5.35527 -5.56635,40.90184 49.87055,13.87681 44.14352,24.89963 24.33036,-33.08036 28.06241,20.26917 18.4587,26.0322 -32.85797,24.98596 25.45142,45.07619 13.60749,48.82088 40.59551,-6.18718 5.51065,34.17559 -5.35527,31.45981 -40.90184,-5.56635 -13.8768,49.87056 -24.89963,44.14352 33.08035,24.33036 -20.26917,28.06241 -26.03219,18.4587 -24.98597,-32.85797 -45.07619,25.45142 -48.82088,13.60752 6.18718,40.5955 -34.17559,5.5106 -31.45981,-5.3552 5.56635,-40.9019 -49.87055,-13.87679 -44.14353,-24.89963 -24.33037,33.08036 -28.062413,-20.26918 -18.45869,-26.03219 32.85797,-24.98596 -25.45142,-45.07619 -13.60749,-48.82089 -40.5955098,6.18718 -5.51065,-34.17559 5.35527,-31.45981 40.9018398,5.56635 13.87681,-49.87055 24.89963,-44.14352 -33.08035,-24.33037 20.26917,-28.06241 26.032193,-18.45869 24.98597,32.85797 45.07619,-25.45142 z"
       inkscape:connector-curvature="0"
       sodipodi:nodetypes="ccccccccccccccccccccccccccccccccccccccccccccccccc" />
    <path
       id="path4262-2-7-9-6-5"
       style="fill:none;fill-rule:evenodd;stroke:#000000;stroke-width:5;stroke-linecap:butt;stroke-linejoin:miter;stroke-miterlimit:4;stroke-dasharray:none;stroke-opacity:1"
       d="m 87.925957,710.86224 14.647213,-23.35978 1.76777,-12.6269 -6.124053,-6.12405 -16.09931,-0.82075 -5.74524,-14.07901 7.63882,-12.1845 12.18449,-7.63881 14.079013,5.74524 0.82075,16.09931 6.12405,6.12404 12.6269,-1.76776 23.35979,-14.64721 23.37851,-11.42295 24.90779,-7.73094 26.875,-6.16072 10.17857,-7.67857 0,-8.66071 -10.80357,-11.96429 5.89286,-14.01786 14.0172,-3.21428 14.0172,3.21428 5.89286,14.01786 -10.80357,11.96429 0,8.66071 10.17857,7.67857 26.875,6.16072 24.60835,8.45387 23.07906,12.14587 23.35979,14.64721 12.6269,1.76776 6.12405,-6.12404 0.82075,-16.09931 14.07901,-5.74524 12.18449,7.63881 7.63882,12.1845 -5.74524,14.07901 -16.09931,0.82075 -6.12405,6.12405 1.76777,12.6269 14.64721,23.35978 11.42294,23.37851 7.73094,24.90779 6.16072,26.875 7.67857,10.17857 8.66071,0 11.96429,-10.80357 14.01786,5.89286 3.21428,14.0172 -3.21428,14.0172 -14.01786,5.89286 -11.96429,-10.80357 -8.66071,0 -7.67857,10.17857 -6.16072,26.875 -8.45386,24.60834 -12.14587,23.07907 -14.6472,23.35978 -1.76777,12.62691 6.12405,6.12405 16.0993,0.82075 5.74525,14.079 -7.63882,12.1845 -12.1845,7.63882 -14.079,-5.74524 -0.82076,-16.09931 -6.12404,-6.12405 -12.62691,1.76777 -23.35978,14.64721 -23.37851,11.42293 -24.90779,7.73095 -26.875,6.16072 -10.17857,7.67857 0,8.66072 10.80357,11.9643 -5.89286,14.0178 -14.0172,3.2143 -14.0172,-3.2143 -5.89286,-14.0178 10.80357,-11.9643 0,-8.66072 -10.17857,-7.67857 -26.875,-6.16072 -24.60834,-8.45387 -23.07908,-12.14585 -23.35978,-14.64721 -12.6269,-1.76776 -6.12405,6.12404 -0.82075,16.09931 -14.079013,5.74524 -12.18449,-7.63881 -7.63882,-12.1845 5.74524,-14.07901 16.09931,-0.82075 6.124043,-6.12405 -1.76776,-12.6269 -14.647213,-23.35978 -11.42294,-23.37852 -7.73095,-24.90779 -6.16072,-26.875 -7.67857,-10.17857 -8.66071,0 -11.96429,10.80357 -14.01786,-5.89286 -3.21428,-14.0172 3.21428,-14.0172 14.01786,-5.89286 11.96429,10.80357 8.66071,0 7.67857,-10.17857 6.16072,-26.875 8.45387,-24.60835 z"
       inkscape:connector-curvature="0"
       sodipodi:nodetypes="ccccccccccccccccccccccccccccccccccccccccccccccccccccccccccccccccccccccccccccccccccccccccccccccccccccccccccccccccc" />
    <path
       sodipodi:type="star"
       style="fill:none;fill-opacity:1;stroke:#000000;stroke-width:5;stroke-miterlimit:4;stroke-dasharray:none"
       id="path4343-9"
       sodipodi:sides="8"
       sodipodi:cx="246.70592"
       sodipodi:cy="804.91132"
       sodipodi:r1="49.289326"
       sodipodi:r2="24.644665"
       sodipodi:arg1="2.3561945"
       sodipodi:arg2="2.7488936"
       inkscape:flatsided="true"
       inkscape:rounded="0"
       inkscape:randomized="0"
       d="m 211.8531,839.76413 -14.43651,-34.85281 14.43651,-34.85282 34.85282,-14.43651 34.85281,14.43651 14.43651,34.85282 -14.43651,34.85281 -34.85281,14.43651 z" />
    <path
       sodipodi:type="star"
       style="fill:none;fill-opacity:1;stroke:#000000;stroke-width:5;stroke-miterlimit:4;stroke-dasharray:none"
       id="path4343-2-2"
       sodipodi:sides="8"
       sodipodi:cx="246.70592"
       sodipodi:cy="804.91132"
       sodipodi:r1="28.967152"
       sodipodi:r2="14.483576"
       sodipodi:arg1="2.3561945"
       sodipodi:arg2="2.7488936"
       inkscape:flatsided="true"
       inkscape:rounded="0"
       inkscape:randomized="0"
       d="m 226.22305,825.39419 -8.48428,-20.48287 8.48428,-20.48287 20.48287,-8.48429 20.48287,8.48429 8.48428,20.48287 -8.48428,20.48287 -20.48287,8.48428 z" />
  </g>
</svg>
