<?xml version="1.0" encoding="UTF-8" standalone="no"?>
<!-- Created with Inkscape (http://www.inkscape.org/) -->

<svg
   xmlns:dc="http://purl.org/dc/elements/1.1/"
   xmlns:cc="http://creativecommons.org/ns#"
   xmlns:rdf="http://www.w3.org/1999/02/22-rdf-syntax-ns#"
   xmlns:svg="http://www.w3.org/2000/svg"
   xmlns="http://www.w3.org/2000/svg"
   xmlns:sodipodi="http://sodipodi.sourceforge.net/DTD/sodipodi-0.dtd"
   xmlns:inkscape="http://www.inkscape.org/namespaces/inkscape"
   width="147.78114mm"
   height="147.78114mm"
   viewBox="0 0 523.63397 523.63396"
   id="svg2"
   version="1.1"
   inkscape:version="0.91 r13725"
   sodipodi:docname="settings_white.svg">
  <defs
     id="defs4" />
  <sodipodi:namedview
     id="base"
     pagecolor="#202020"
     bordercolor="#666666"
     borderopacity="1.0"
     inkscape:pageopacity="0"
     inkscape:pageshadow="2"
     inkscape:zoom="1"
     inkscape:cx="208.21483"
     inkscape:cy="289.50548"
     inkscape:document-units="px"
     inkscape:current-layer="layer2"
     showgrid="false"
     inkscape:window-width="1301"
     inkscape:window-height="744"
     inkscape:window-x="65"
     inkscape:window-y="24"
     inkscape:window-maximized="1"
     showguides="false"
     inkscape:guide-bbox="true"
     fit-margin-top="4"
     fit-margin-left="4"
     fit-margin-right="4"
     fit-margin-bottom="4">
    <sodipodi:guide
       position="416.29317,472.59649"
       orientation="1,0"
       id="guide4339" />
    <sodipodi:guide
       position="404.62591,472.68488"
       orientation="0,1"
       id="guide4341" />
  </sodipodi:namedview>
  <metadata
     id="metadata7">
    <rdf:RDF>
      <cc:Work
         rdf:about="">
        <dc:format>image/svg+xml</dc:format>
        <dc:type
           rdf:resource="http://purl.org/dc/dcmitype/StillImage" />
        <dc:title></dc:title>
      </cc:Work>
    </rdf:RDF>
  </metadata>
  <g
     inkscape:groupmode="layer"
     id="layer2"
     inkscape:label="data"
     transform="translate(15.186844,-543.91508)">
    <path
       id="path4295-6-6-7"
       style="fill:none;fill-rule:evenodd;stroke:#ffffff;stroke-width:4;stroke-linecap:butt;stroke-linejoin:miter;stroke-miterlimit:4;stroke-dasharray:none;stroke-opacity:1"
       d="m 176.91754,847.96794 -12.83702,12.83702 -3.0052,11.21428 -23.96982,-0.69053 -20.35832,-14.28439 -18.749383,8.03505 0.71402,25.35779 25.130623,35.24003 c 34.9583,24.84889 34.9583,24.84889 34.9583,24.84889 l 25.35778,0.71401 8.03505,-18.74938 -14.28438,-20.35832 -0.69053,-23.96981 11.21427,-3.00521 12.83702,-12.83702 -5.62922,-18.719 -18.72315,-5.63337 z m 139.4252,-84.4717 12.83702,-12.83702 3.0052,-11.21427 23.96982,0.69053 20.35832,14.28438 18.74938,-8.03504 -0.71401,-25.3578 -25.13062,-35.24003 c -34.9583,-24.84889 -34.9583,-24.84889 -34.9583,-24.84889 l -25.35779,-0.714 -8.03505,18.74937 14.28438,20.35832 0.69053,23.96982 -11.21427,3.0052 -12.83702,12.83702 5.62923,18.719 18.72314,5.63338 z M 204.3943,736.01949 191.55728,723.18247 180.343,720.17726 l 0.69053,-23.96981 14.28439,-20.35832 -8.03505,-18.74938 -25.35779,0.714 -35.24003,25.13063 c -24.8489,34.9583 -24.8489,34.9583 -24.8489,34.9583 l -0.714,25.35779 18.74938,8.03505 20.35832,-14.28439 23.96981,-0.69053 3.00521,11.21428 12.83702,12.83702 18.719,-5.62924 5.63337,-18.72314 z m 84.47169,139.42518 12.83702,12.83703 11.21428,3.0052 -0.69054,23.96982 -14.28438,20.35832 8.03504,18.74938 25.3578,-0.71401 35.24003,-25.13063 c 24.84889,-34.95829 24.84889,-34.95829 24.84889,-34.95829 l 0.71401,-25.35779 -18.74938,-8.03506 -20.35832,14.28439 -23.96981,0.69053 -3.00521,-11.21427 -12.83702,-12.83703 -18.719,5.62924 -5.63338,18.72314 z m -121.39535,-89.14158 -18.15429,0 -10.05469,5.80469 -16.46094,-17.4375 -4.29492,-24.49609 -18.939453,-7.57618 -17.42579,18.43555 -7.14843,42.6885 c 7.14843,42.29007 7.14843,42.29007 7.14843,42.29007 l 17.42579,18.43554 18.939453,-7.57617 4.29492,-24.49609 16.46094,-17.4375 10.05469,5.80469 18.15429,0 9.25586,-17.2168 -9.25586,-17.22266 z m 158.319,38.85799 18.15429,0 10.05469,-5.80469 16.46094,17.4375 4.29492,24.49609 18.93945,7.57618 17.42579,-18.43555 7.14843,-42.6885 c -7.14843,-42.29007 -7.14843,-42.29007 -7.14843,-42.29007 l -17.42579,-18.43554 -18.93945,7.57617 -4.29492,24.49609 -16.46094,17.4375 -10.05469,-5.80469 -18.15429,0 -9.25586,17.2168 9.25586,17.22266 z m -59.7305,-98.5885 0,-18.15429 -5.80469,-10.05469 17.4375,-16.46094 24.49609,-4.29492 7.57618,-18.93945 -18.43555,-17.42579 -42.6885,-7.14843 c -42.29007,7.14843 -42.29007,7.14843 -42.29007,7.14843 l -18.43554,17.42579 7.57617,18.93945 24.49609,4.29492 17.4375,16.46094 -5.80469,10.05469 0,18.15429 17.2168,9.25586 17.22266,-9.25586 z m -38.85799,158.319 0,18.15429 5.80469,10.05469 -17.4375,16.46094 -24.49609,4.29492 -7.57618,18.93945 18.43555,17.42579 42.6885,7.14843 c 42.29007,-7.14843 42.29007,-7.14843 42.29007,-7.14843 l 18.43554,-17.42579 -7.57617,-18.93945 -24.49609,-4.29492 -17.4375,-16.46094 5.80469,-10.05469 0,-18.15429 -17.2168,-9.25586 -17.22266,9.25586 z"
       inkscape:connector-curvature="0" />
    <path
       id="path4162-7-3-1"
       style="fill:none;fill-rule:evenodd;stroke:#ffffff;stroke-width:7;stroke-linecap:butt;stroke-linejoin:miter;stroke-miterlimit:4;stroke-dasharray:none;stroke-opacity:1"
       d="m 219.67168,607.74218 -6.18718,-40.59551 34.17559,-5.51065 31.45981,5.35527 -5.56635,40.90184 49.87055,13.87681 44.14352,24.89963 24.33036,-33.08036 28.06241,20.26917 18.4587,26.0322 -32.85797,24.98596 25.45142,45.07619 13.60749,48.82088 40.59551,-6.18718 5.51065,34.17559 -5.35527,31.45981 -40.90184,-5.56635 -13.8768,49.87056 -24.89963,44.14352 33.08035,24.33036 -20.26917,28.06241 -26.03219,18.4587 -24.98597,-32.85797 -45.07619,25.45142 -48.82088,13.60752 6.18718,40.5955 -34.17559,5.5106 -31.45981,-5.3552 5.56635,-40.9019 -49.87055,-13.87679 -44.14353,-24.89963 -24.33037,33.08036 -28.062413,-20.26918 -18.45869,-26.03219 32.85797,-24.98596 -25.45142,-45.07619 -13.60749,-48.82089 -40.5955098,6.18718 -5.51065,-34.17559 5.35527,-31.45981 40.9018398,5.56635 13.87681,-49.87055 24.89963,-44.14352 -33.08035,-24.33037 20.26917,-28.06241 26.032193,-18.45869 24.98597,32.85797 45.07619,-25.45142 z"
       inkscape:connector-curvature="0"
       sodipodi:nodetypes="ccccccccccccccccccccccccccccccccccccccccccccccccc" />
    <path
       id="path4262-2-7-9-6"
       style="fill:none;fill-rule:evenodd;stroke:#ffffff;stroke-width:3;stroke-linecap:butt;stroke-linejoin:miter;stroke-miterlimit:4;stroke-dasharray:none;stroke-opacity:1"
       d="m 89.18611,712.35995 14.41993,-23.17666 1.70644,-12.50666 -6.083935,-6.04161 -15.941056,-0.7569 -5.736407,-13.91828 7.52028,-12.08898 12.036173,-7.60449 13.957995,5.6391 0.86817,15.93539 6.08394,6.04159 12.49444,-1.7937 23.07543,-14.58137 23.10512,-11.38945 24.63184,-7.73966 26.5848,-6.19194 10.05018,-7.63691 -0.0299,-8.57406 -10.73681,-11.80724 5.78546,-13.89796 13.86583,-3.23055 13.88806,3.13367 5.88233,13.85723 -10.65412,11.88191 0.0299,8.57405 10.10326,7.56656 26.62739,6.00621 24.39132,8.28424 22.89011,11.94458 23.17667,14.41993 12.50666,1.70643 6.04161,-6.08392 0.7569,-15.94105 13.91828,-5.73641 12.08897,7.52027 7.6045,12.03618 -5.6391,13.95799 -15.93539,0.86817 -6.0416,6.08394 1.79371,12.49444 14.58137,23.07542 11.38944,23.10512 7.73966,24.63184 6.19194,26.5848 7.63691,10.05018 8.57406,-0.0299 11.80724,-10.73681 13.89796,5.78546 3.23055,13.86583 -3.13367,13.88806 -13.85723,5.88233 -11.88191,-10.65412 -8.57405,0.0299 -7.56656,10.10326 -6.00621,26.62739 -8.28423,24.39131 -11.94458,22.89012 -14.41992,23.17666 -1.70644,12.50667 6.08393,6.04161 15.94104,0.7569 5.73642,13.91827 -7.52028,12.08898 -12.03618,7.6045 -13.95798,-5.6391 -0.86818,-15.93539 -6.08393,-6.0416 -12.49445,1.79371 -23.07542,14.58137 -23.10512,11.38943 -24.63184,7.73967 -26.5848,6.19194 -10.05018,7.63691 0.0299,8.57415 10.73681,11.8072 -5.78546,13.8979 -13.86583,3.2306 -13.88806,-3.1338 -5.88233,-13.8571 10.65412,-11.882 -0.0299,-8.574 -10.10326,-7.56656 -26.62739,-6.00621 -24.39131,-8.28424 -22.89013,-11.94456 -23.17666,-14.41993 -12.50666,-1.70643 -6.04161,6.08393 -0.7569,15.94104 -13.918286,5.73641 -12.088969,-7.52027 -7.604492,-12.03618 5.639099,-13.95799 15.935384,-0.86817 6.041594,-6.08394 -1.7937,-12.49444 -14.581378,-23.07542 -11.389431,-23.10513 -7.739669,-24.63184 -6.191948,-26.5848 -7.636913,-10.05018 -8.574051,0.0299 -11.80724,10.73681 -13.897962,-5.78546 -3.230557,-13.86583 3.133678,-13.88806 13.857233,-5.88233 11.881908,10.65412 8.574051,-0.0299 7.566564,-10.10326 6.006202,-26.62739 8.28424,-24.39132 z"
       inkscape:connector-curvature="0"
       sodipodi:nodetypes="ccccccccccccccccccccccccccccccccccccccccccccccccccccccccccccccccccccccccccccccccccccccccccccccccccccccccccccccccc" />
    <path
       sodipodi:type="star"
       style="fill:none;fill-opacity:1;stroke:#ffffff;stroke-width:7;stroke-miterlimit:4;stroke-dasharray:none;stroke-opacity:1"
       id="path4343"
       sodipodi:sides="8"
       sodipodi:cx="246.70592"
       sodipodi:cy="804.91132"
       sodipodi:r1="49.289326"
       sodipodi:r2="24.644665"
       sodipodi:arg1="2.3561945"
       sodipodi:arg2="2.7488936"
       inkscape:flatsided="true"
       inkscape:rounded="0"
       inkscape:randomized="0"
       d="m 211.8531,839.76413 -14.43651,-34.85281 14.43651,-34.85282 34.85282,-14.43651 34.85281,14.43651 14.43651,34.85282 -14.43651,34.85281 -34.85281,14.43651 z" />
    <path
       sodipodi:type="star"
       style="fill:none;fill-opacity:1;stroke:#ffffff;stroke-width:7;stroke-miterlimit:4;stroke-dasharray:none;stroke-opacity:1"
       id="path4343-2"
       sodipodi:sides="8"
       sodipodi:cx="246.70592"
       sodipodi:cy="804.91132"
       sodipodi:r1="28.967152"
       sodipodi:r2="14.483576"
       sodipodi:arg1="2.3561945"
       sodipodi:arg2="2.7488936"
       inkscape:flatsided="true"
       inkscape:rounded="0"
       inkscape:randomized="0"
       d="m 226.22305,825.39419 -8.48428,-20.48287 8.48428,-20.48287 20.48287,-8.48429 20.48287,8.48429 8.48428,20.48287 -8.48428,20.48287 -20.48287,8.48428 z" />
  </g>
</svg>
