<?xml version="1.0" encoding="UTF-8" standalone="no"?>
<!-- Created with Inkscape (http://www.inkscape.org/) -->

<svg
   xmlns:dc="http://purl.org/dc/elements/1.1/"
   xmlns:cc="http://creativecommons.org/ns#"
   xmlns:rdf="http://www.w3.org/1999/02/22-rdf-syntax-ns#"
   xmlns:svg="http://www.w3.org/2000/svg"
   xmlns="http://www.w3.org/2000/svg"
   xmlns:sodipodi="http://sodipodi.sourceforge.net/DTD/sodipodi-0.dtd"
   xmlns:inkscape="http://www.inkscape.org/namespaces/inkscape"
   width="176.97047mm"
   height="205.26711mm"
   viewBox="0 0 176.97047 205.26711"
   version="1.1"
   id="svg5201"
   inkscape:version="0.92.2 2405546, 2018-03-11"
   sodipodi:docname="ice_spear_blue.svg">
  <defs
     id="defs5195" />
  <sodipodi:namedview
     id="base"
     pagecolor="#ffffff"
     bordercolor="#666666"
     borderopacity="1.0"
     inkscape:pageopacity="0.0"
     inkscape:pageshadow="2"
     inkscape:zoom="11.2"
     inkscape:cx="300.18484"
     inkscape:cy="320.88921"
     inkscape:document-units="mm"
     inkscape:current-layer="g6263-2-4"
     showgrid="false"
     inkscape:window-width="1920"
     inkscape:window-height="1054"
     inkscape:window-x="1920"
     inkscape:window-y="0"
     inkscape:window-maximized="1"
     fit-margin-top="30"
     fit-margin-left="2"
     fit-margin-right="2"
     fit-margin-bottom="2" />
  <metadata
     id="metadata5198">
    <rdf:RDF>
      <cc:Work
         rdf:about="">
        <dc:format>image/svg+xml</dc:format>
        <dc:type
           rdf:resource="http://purl.org/dc/dcmitype/StillImage" />
        <dc:title></dc:title>
      </cc:Work>
    </rdf:RDF>
  </metadata>
  <g
     inkscape:label="Ebene 1"
     inkscape:groupmode="layer"
     id="layer1"
     transform="translate(1.9999994,-93.732891)">
    <g
       id="g6263-2-4"
       transform="rotate(-45,140.83745,272.4606)"
       style="opacity:1;fill:none;fill-opacity:0.00938966;stroke:#42a2e3;stroke-width:1.70000005;stroke-miterlimit:4;stroke-dasharray:none;stroke-opacity:0.97741939;stroke-linecap:square;stroke-linejoin:miter"
       inkscape:export-xdpi="96"
       inkscape:export-ydpi="96">
      <path
         sodipodi:nodetypes="ccscsccscccccccccccccccccccccccccccccccsccscscccc"
         inkscape:connector-curvature="0"
         d="m 85.345499,179.69225 13.12961,-0.20045 c 0,0 5.011301,-1.1359 7.383321,-6.24743 2.37202,-5.11152 -1.30294,-13.66415 -1.30294,-13.66415 0,0 -1.45533,-3.89445 -4.576991,-7.65059 -0.213532,-0.25693 -3.60814,-3.94222 -3.60814,-3.94222 l 8.986941,-17.77343 c 0,0 4.47355,11.63115 13.27998,23.34406 5.31652,7.07118 14.74667,8.46445 17.0667,8.51705 8.83831,0.20058 14.05705,0.56487 25.17213,0.41263 0,0 3.63803,-0.0709 5.48066,-6.16574 l 6.14212,4.39398 6.80357,2.95294 28.06473,-0.42522 1.96075,-2.05525 -15.35933,-22.89523 c 0,0 39.27716,22.79041 65.46958,43.63744 l -53.96088,-0.11888 c 0,0 -9.11868,1.13393 -13.93787,6.18936 0,0 -3.19495,-3.96574 -10.57827,-5.7364 l -29.39441,0.55698 -4.57699,3.94223 -5.71812,-4.63284 c 0,0 -4.99252,5.60673 -8.8982,7.99232 3.91195,2.38559 8.8982,7.77692 8.8982,7.77692 l 5.81311,-4.97789 4.57699,3.94223 29.29942,0.90203 c 7.38332,-1.77066 10.57827,-5.7364 10.57827,-5.7364 4.81919,5.05543 13.93787,6.18936 13.93787,6.18936 l 53.96088,-0.11888 c -26.19242,20.84703 -65.46958,43.63744 -65.46958,43.63744 l 15.35933,-22.89523 -1.96075,-2.05525 -28.06473,-0.42522 -6.80357,2.95294 -6.14212,4.39398 c -1.84263,-6.09484 -5.48066,-6.16574 -5.48066,-6.16574 -11.11508,-0.15224 -16.33382,0.21205 -25.17213,0.41263 -2.32003,0.0526 -11.75018,1.44587 -17.0667,8.51705 -8.80643,11.71291 -13.27998,23.34406 -13.27998,23.34406 l -8.986941,-17.77343 c 0,0 3.386868,-3.69192 3.60814,-3.94222 3.216161,-3.63802 4.576991,-7.65059 4.576991,-7.65059 0,0 3.67496,-8.55263 1.30294,-13.66415 -2.37202,-5.11153 -7.383321,-6.24743 -7.383321,-6.24743 l -13.12961,-0.20045 c 0,0 1.13895,-5.97646 3.79733,-10.39332 -2.63328,-4.41686 -3.79733,-10.2536 -3.79733,-10.2536 z"
         style="opacity:0.994;fill:none;fill-opacity:0.00938966;stroke:#42a2e3;stroke-width:1.70000005;stroke-linecap:square;stroke-linejoin:miter;stroke-miterlimit:4;stroke-dasharray:none;stroke-opacity:0.97741939"
         id="path4502-4-3-2" />
      <path
         sodipodi:nodetypes="cccccccccccccccccsccccccccsccccccccccccccccc"
         inkscape:connector-curvature="0"
         d="m 141.27165,182.13109 c 1.8321,-4.14268 1.8321,-4.14268 1.8321,-4.14268 l 4.27632,4.51017 3.67495,-3.64154 h 35.48003 c 5.64607,1.46998 7.04924,4.04245 7.04924,4.04245 0.46772,-0.73499 6.04697,-3.50791 6.04697,-3.50791 l 6.48129,-1.30294 38.28636,-0.50113 c -15.03392,-11.39237 -26.67513,-19.25752 -26.67513,-19.25752 l 0.92132,2.7167 0.0472,2.36235 -3.04743,3.70889 -37.06529,0.18899 c -8.17373,-2.38597 -8.58183,-3.98493 -8.58183,-3.98493 -2.10475,3.94223 -3.70837,3.47451 -3.70837,3.47451 0,0 -29.26601,0.30068 -32.23938,-0.20045 -2.97338,-0.50114 -8.21854,-0.50114 -15.43482,-7.75082 -7.21628,-7.24969 -11.39236,-17.13866 -11.39236,-17.13866 l -6.29809,11.02087 -4.025201,-4.74003 3.533471,3.91698 m 0,76.22264 -3.533471,3.91698 4.013391,-4.84634 6.3099,11.12718 c 0,0 4.17608,-9.88897 11.39236,-17.13866 7.21628,-7.24968 12.46144,-7.24968 15.43482,-7.75082 2.97337,-0.50113 32.23938,-0.20045 32.23938,-0.20045 0,0 1.60362,-0.46772 3.70837,3.47451 0,0 0.4081,-1.59896 8.58183,-3.98493 l 37.0653,0.18899 3.04743,3.70889 -0.0472,2.36235 -0.92132,2.7167 c 0,0 11.64121,-7.86515 26.67513,-19.25752 l -38.28636,-0.50113 -6.48129,-1.30294 c 0,0 -5.57925,-2.77292 -6.04697,-3.50791 0,0 -1.40317,2.57247 -7.04924,4.04245 h -35.48004 l -3.67495,-3.64154 -4.27632,4.51017 c 0,0 0,0 -1.8321,-4.14268"
         style="display:inline;opacity:1;fill:none;fill-opacity:0.00938966;stroke:#42a2e3;stroke-width:1.70000005;stroke-linecap:square;stroke-linejoin:bevel;stroke-miterlimit:4;stroke-dasharray:none;stroke-dashoffset:0;stroke-opacity:0.97741939"
         id="path4506-4-0-9-6" />
      <g
         transform="translate(-30.616071,5.6696429)"
         style="fill:none;fill-opacity:0.00938966;stroke:#42a2e3;stroke-width:1.70000005;stroke-linecap:square;stroke-linejoin:miter;stroke-miterlimit:4;stroke-dasharray:none;stroke-opacity:0.97741939"
         id="g4692-2-6">
        <path
           sodipodi:nodetypes="cccccccccc"
           style="display:inline;fill:none;fill-opacity:0.00938966;stroke:#42a2e3;stroke-width:1.70000005;stroke-linecap:square;stroke-linejoin:miter;stroke-miterlimit:4;stroke-dasharray:none;stroke-opacity:0.97741939"
           d="m 58.906065,184.72774 c 0,0 0.09449,3.35454 0,0 -0.09449,-3.35454 1.475631,-4.83756 1.475631,-4.83756 l 11.670015,-0.23624 1.27567,-1.41741 16.20573,-3.07105 2.173359,-1.79539 c 0,0 7.228795,-0.94494 20.03274,-1.13393 0,0 0.84808,-0.14569 0.84808,1.27418 l 3.37428,0.51227"
           id="path4631-9-4"
           inkscape:connector-curvature="0" />
        <path
           sodipodi:nodetypes="cccccccccc"
           style="display:inline;fill:none;fill-opacity:0.00938966;stroke:#42a2e3;stroke-width:1.70000005;stroke-linecap:square;stroke-linejoin:miter;stroke-miterlimit:4;stroke-dasharray:none;stroke-opacity:0.97741939"
           d="m 58.906065,184.19857 c 0,0 0.09449,-2.82537 0,0.52917 -0.09449,3.35454 1.208361,4.20785 1.208361,4.20785 l 11.937286,0.10261 1.27567,1.41741 16.205729,3.07105 2.173359,1.79539 c 0,0 7.228795,0.94494 20.03274,1.13393 0,0 0.84808,0.14569 0.84808,-1.27418 l 3.37428,-0.51227"
           id="path4631-5-4-4"
           inkscape:connector-curvature="0" />
      </g>
    </g>
  </g>
</svg>
